# xmcd CD database file
#
# Track frame offsets:
#	150
#	20083
#	44005
#	61640
#	87655
#	108423
#	118935
#	137450
#	153740
#	173305
#
# Disc length: 2360 seconds
#
# Revision: 0
# Processed by: cddbd v1.5.1PL0 Copyright (c) Steve Scherf et al.
# Submitted via: CDex 1.51
#
DISCID=8309360a
DTITLE=ガガーリン - 銀河クラシックス
DYEAR=2005
DGENRE=Pop
TTITLE0=さよなら Freedom 〜地図の指す場所へ〜
TTITLE1=SUNDAY
TTITLE2=リフレイン17
TTITLE3=Dolphin Afternoon 〜二人だけの世界〜
TTITLE4=ピリオドの歌
TTITLE5=Holiday in the moon
TTITLE6=サッドソングが嫌いな君の事
TTITLE7=とんがりめがねのメアリー
TTITLE8=Knock on tomorrow
TTITLE9=Flying moles
EXTD=YEAR: 2005
EXTT0=
EXTT1=
EXTT2=
EXTT3=
EXTT4=
EXTT5=
EXTT6=
EXTT7=
EXTT8=
EXTT9=
PLAYORDER=
